<?xml version="1.0" encoding="UTF-8" standalone="no"?>
<svg
   xmlns:dc="http://purl.org/dc/elements/1.1/"
   xmlns:cc="http://creativecommons.org/ns#"
   xmlns:rdf="http://www.w3.org/1999/02/22-rdf-syntax-ns#"
   xmlns:svg="http://www.w3.org/2000/svg"
   xmlns="http://www.w3.org/2000/svg"
   xmlns:sodipodi="http://sodipodi.sourceforge.net/DTD/sodipodi-0.dtd"
   xmlns:inkscape="http://www.inkscape.org/namespaces/inkscape"
   version="1.1"
   id="svg2"
   xml:space="preserve"
   width="1159.8533"
   height="377.60666"
   viewBox="0 0 1159.8533 377.60666"
   sodipodi:docname="quero-bolsa.ai"><metadata
     id="metadata8"><rdf:RDF><cc:Work
         rdf:about=""><dc:format>image/svg+xml</dc:format><dc:type
           rdf:resource="http://purl.org/dc/dcmitype/StillImage" /></cc:Work></rdf:RDF></metadata><defs
     id="defs6"><linearGradient
       x1="0"
       y1="0"
       x2="1"
       y2="0"
       gradientUnits="userSpaceOnUse"
       gradientTransform="matrix(0,114.47705,114.47705,0,312.41504,140.62939)"
       spreadMethod="pad"
       id="linearGradient28"><stop
         style="stop-opacity:1;stop-color:#a7925c"
         offset="0"
         id="stop24" /><stop
         style="stop-opacity:1;stop-color:#e3c37a"
         offset="1"
         id="stop26" /></linearGradient><linearGradient
       x1="0"
       y1="0"
       x2="1"
       y2="0"
       gradientUnits="userSpaceOnUse"
       gradientTransform="matrix(0,113.59326,113.59326,0,424.33789,141.51318)"
       spreadMethod="pad"
       id="linearGradient48"><stop
         style="stop-opacity:1;stop-color:#a7925c"
         offset="0"
         id="stop44" /><stop
         style="stop-opacity:1;stop-color:#e3c37a"
         offset="1"
         id="stop46" /></linearGradient><linearGradient
       x1="0"
       y1="0"
       x2="1"
       y2="0"
       gradientUnits="userSpaceOnUse"
       gradientTransform="matrix(0,113.59473,113.59473,0,535.50781,141.71338)"
       spreadMethod="pad"
       id="linearGradient68"><stop
         style="stop-opacity:1;stop-color:#a7925c"
         offset="0"
         id="stop64" /><stop
         style="stop-opacity:1;stop-color:#e3c37a"
         offset="1"
         id="stop66" /></linearGradient><linearGradient
       x1="0"
       y1="0"
       x2="1"
       y2="0"
       gradientUnits="userSpaceOnUse"
       gradientTransform="matrix(0,117.74219,117.74219,0,664.07031,139.83594)"
       spreadMethod="pad"
       id="linearGradient88"><stop
         style="stop-opacity:1;stop-color:#a7925c"
         offset="0"
         id="stop84" /><stop
         style="stop-opacity:1;stop-color:#e3c37a"
         offset="1"
         id="stop86" /></linearGradient><linearGradient
       x1="0"
       y1="0"
       x2="1"
       y2="0"
       gradientUnits="userSpaceOnUse"
       gradientTransform="matrix(0,112.85156,112.85156,0,311.63232,1.7792969)"
       spreadMethod="pad"
       id="linearGradient108"><stop
         style="stop-opacity:1;stop-color:#4b7c88"
         offset="0"
         id="stop104" /><stop
         style="stop-opacity:1;stop-color:#65a4b2"
         offset="1"
         id="stop106" /></linearGradient><linearGradient
       x1="0"
       y1="0"
       x2="1"
       y2="0"
       gradientUnits="userSpaceOnUse"
       gradientTransform="matrix(0,117.7417,117.7417,0,444.0332,-0.2924805)"
       spreadMethod="pad"
       id="linearGradient128"><stop
         style="stop-opacity:1;stop-color:#4b7c88"
         offset="0"
         id="stop124" /><stop
         style="stop-opacity:1;stop-color:#65a4b2"
         offset="1"
         id="stop126" /></linearGradient><linearGradient
       x1="0"
       y1="0"
       x2="1"
       y2="0"
       gradientUnits="userSpaceOnUse"
       gradientTransform="matrix(0,112.82324,112.82324,0,572.32715,1.8076172)"
       spreadMethod="pad"
       id="linearGradient148"><stop
         style="stop-opacity:1;stop-color:#4b7c88"
         offset="0"
         id="stop144" /><stop
         style="stop-opacity:1;stop-color:#65a4b2"
         offset="1"
         id="stop146" /></linearGradient><linearGradient
       x1="0"
       y1="0"
       x2="1"
       y2="0"
       gradientUnits="userSpaceOnUse"
       gradientTransform="matrix(0,118.23047,118.23047,0,681.49609,0)"
       spreadMethod="pad"
       id="linearGradient168"><stop
         style="stop-opacity:1;stop-color:#4b7c88"
         offset="0"
         id="stop164" /><stop
         style="stop-opacity:1;stop-color:#65a4b2"
         offset="1"
         id="stop166" /></linearGradient><linearGradient
       x1="0"
       y1="0"
       x2="1"
       y2="0"
       gradientUnits="userSpaceOnUse"
       gradientTransform="matrix(0,112.82324,112.82324,0,802.73047,1.8076172)"
       spreadMethod="pad"
       id="linearGradient188"><stop
         style="stop-opacity:1;stop-color:#4b7c88"
         offset="0"
         id="stop184" /><stop
         style="stop-opacity:1;stop-color:#65a4b2"
         offset="1"
         id="stop186" /></linearGradient><linearGradient
       x1="0"
       y1="0"
       x2="1"
       y2="0"
       gradientUnits="userSpaceOnUse"
       gradientTransform="matrix(-1.53e-5,241.1665,241.1665,1.53e-5,120.40771,42.038574)"
       spreadMethod="pad"
       id="linearGradient208"><stop
         style="stop-opacity:1;stop-color:#a7925c"
         offset="0"
         id="stop204" /><stop
         style="stop-opacity:1;stop-color:#e3c37a"
         offset="1"
         id="stop206" /></linearGradient><linearGradient
       x1="0"
       y1="0"
       x2="1"
       y2="0"
       gradientUnits="userSpaceOnUse"
       gradientTransform="matrix(0,57.792969,57.792969,0,72.243652,190.69531)"
       spreadMethod="pad"
       id="linearGradient232"><stop
         style="stop-opacity:1;stop-color:#e6e6e6"
         offset="0"
         id="stop224" /><stop
         style="stop-opacity:1;stop-color:#ffffff"
         offset="0.92709098"
         id="stop226" /><stop
         style="stop-opacity:1;stop-color:#ffffff"
         offset="0.987732"
         id="stop228" /><stop
         style="stop-opacity:1;stop-color:#ffffff"
         offset="1"
         id="stop230" /></linearGradient><linearGradient
       x1="0"
       y1="0"
       x2="1"
       y2="0"
       gradientUnits="userSpaceOnUse"
       gradientTransform="matrix(0,57.793457,57.793457,0,165.19482,92.453125)"
       spreadMethod="pad"
       id="linearGradient256"><stop
         style="stop-opacity:1;stop-color:#e6e6e6"
         offset="0"
         id="stop248" /><stop
         style="stop-opacity:1;stop-color:#ffffff"
         offset="0.92709098"
         id="stop250" /><stop
         style="stop-opacity:1;stop-color:#ffffff"
         offset="0.987732"
         id="stop252" /><stop
         style="stop-opacity:1;stop-color:#ffffff"
         offset="1"
         id="stop254" /></linearGradient><linearGradient
       x1="0"
       y1="0"
       x2="1"
       y2="0"
       gradientUnits="userSpaceOnUse"
       gradientTransform="matrix(0,58.145508,58.145508,0,150.12549,179.68066)"
       spreadMethod="pad"
       id="linearGradient280"><stop
         style="stop-opacity:1;stop-color:#e6e6e6"
         offset="0"
         id="stop272" /><stop
         style="stop-opacity:1;stop-color:#ffffff"
         offset="0.92709098"
         id="stop274" /><stop
         style="stop-opacity:1;stop-color:#ffffff"
         offset="0.987732"
         id="stop276" /><stop
         style="stop-opacity:1;stop-color:#ffffff"
         offset="1"
         id="stop278" /></linearGradient><linearGradient
       x1="0"
       y1="0"
       x2="1"
       y2="0"
       gradientUnits="userSpaceOnUse"
       gradientTransform="matrix(0,52.395508,52.395508,0,120.43604,146.84814)"
       spreadMethod="pad"
       id="linearGradient304"><stop
         style="stop-opacity:1;stop-color:#e6e6e6"
         offset="0"
         id="stop296" /><stop
         style="stop-opacity:1;stop-color:#ffffff"
         offset="0.92709098"
         id="stop298" /><stop
         style="stop-opacity:1;stop-color:#ffffff"
         offset="0.987732"
         id="stop300" /><stop
         style="stop-opacity:1;stop-color:#ffffff"
         offset="1"
         id="stop302" /></linearGradient><linearGradient
       x1="0"
       y1="0"
       x2="1"
       y2="0"
       gradientUnits="userSpaceOnUse"
       gradientTransform="matrix(0,33.020508,33.020508,0,176.88037,183.42041)"
       spreadMethod="pad"
       id="linearGradient328"><stop
         style="stop-opacity:1;stop-color:#e6e6e6"
         offset="0"
         id="stop320" /><stop
         style="stop-opacity:1;stop-color:#ffffff"
         offset="0.92709098"
         id="stop322" /><stop
         style="stop-opacity:1;stop-color:#ffffff"
         offset="0.987732"
         id="stop324" /><stop
         style="stop-opacity:1;stop-color:#ffffff"
         offset="1"
         id="stop326" /></linearGradient><linearGradient
       x1="0"
       y1="0"
       x2="1"
       y2="0"
       gradientUnits="userSpaceOnUse"
       gradientTransform="matrix(0,76.141602,76.141602,0,87.975098,96.314453)"
       spreadMethod="pad"
       id="linearGradient352"><stop
         style="stop-opacity:1;stop-color:#e6e6e6"
         offset="0"
         id="stop344" /><stop
         style="stop-opacity:1;stop-color:#ffffff"
         offset="0.92709098"
         id="stop346" /><stop
         style="stop-opacity:1;stop-color:#ffffff"
         offset="0.987732"
         id="stop348" /><stop
         style="stop-opacity:1;stop-color:#ffffff"
         offset="1"
         id="stop350" /></linearGradient><linearGradient
       x1="0"
       y1="0"
       x2="1"
       y2="0"
       gradientUnits="userSpaceOnUse"
       gradientTransform="matrix(0,33.004394,33.004394,0,77.843262,103.68506)"
       spreadMethod="pad"
       id="linearGradient376"><stop
         style="stop-opacity:1;stop-color:#e6e6e6"
         offset="0"
         id="stop368" /><stop
         style="stop-opacity:1;stop-color:#ffffff"
         offset="0.92709098"
         id="stop370" /><stop
         style="stop-opacity:1;stop-color:#ffffff"
         offset="0.987732"
         id="stop372" /><stop
         style="stop-opacity:1;stop-color:#ffffff"
         offset="1"
         id="stop374" /></linearGradient></defs><sodipodi:namedview
     pagecolor="#ffffff"
     bordercolor="#666666"
     borderopacity="1"
     objecttolerance="10"
     gridtolerance="10"
     guidetolerance="10"
     inkscape:pageopacity="0"
     inkscape:pageshadow="2"
     inkscape:window-width="640"
     inkscape:window-height="480"
     id="namedview4" /><g
     id="g10"
     inkscape:groupmode="layer"
     inkscape:label="quero-bolsa"
     transform="matrix(1.3333333,0,0,-1.3333333,0,377.60667)"><g
       id="g12"><g
         id="g14"><g
           id="g20"><g
             id="g22"><path
               d="m 324.63,255.107 v -68.589 c 0,0 0.229,-10.011 -12.262,-10.033 v 0 c -11.858,1.061 -12.233,9.803 -12.233,9.803 v 0 68.819 h -45.057 l -0.015,-62.629 c 0,0 -2.857,-53.756 57.305,-51.796 v 0 c 60.888,-0.899 57.383,51.938 57.383,51.938 v 0 62.487 z"
               style="fill:url(#linearGradient28);stroke:none"
               id="path30" /></g></g></g></g><g
       id="g32"><g
         id="g34"><g
           id="g40"><g
             id="g42"><path
               d="M 378.023,255.107 V 141.513 h 92.602 l 0.027,35.673 h -39.859 v 14.612 h 27.033 l -0.011,13.075 h -26.979 v 13.751 h 38.794 v 36.483 z"
               style="fill:url(#linearGradient48);stroke:none"
               id="path50" /></g></g></g></g><g
       id="g52"><g
         id="g54"><g
           id="g60"><g
             id="g62"><path
               d="M 542.851,255.307 H 477.347 V 141.713 h 52.519 l -0.027,27.56 2.273,0.021 7.14,-27.581 h 54.416 l -19.542,44.794 c 0,0 7.434,4.818 11.22,13.813 v 0 c 0.964,2.381 2.903,5.425 3.049,11.743 v 0 c 0.129,0.923 0.449,8.174 -1.264,14.939 v 0 c -1.339,2.752 -1.037,7.952 -10.033,17.391 v 0 c -10.631,10.7 -32.405,10.915 -34.137,10.915 v 0 c -0.073,0 -0.11,-0.001 -0.11,-0.001 m -12.985,-56.483 v 28.314 c 0,0 11.083,-0.1 11.285,-14.156 v 0 c -0.367,-13.573 -9.474,-14.163 -11.053,-14.163 v 0 c -0.15,0 -0.232,0.005 -0.232,0.005"
               style="fill:url(#linearGradient68);stroke:none"
               id="path70" /></g></g></g></g><g
       id="g72"><g
         id="g74"><g
           id="g80"><g
             id="g82"><path
               d="m 663.304,257.568 c -71.687,-2.035 -69.64,-59.052 -69.636,-59.788 v 0 c 3.498,-59.627 70.465,-58.24 69.636,-57.862 v 0 c 72.042,1.172 71.712,58.923 71.06,57.862 v 0 c -2.587,57.874 -62.273,59.798 -70.195,59.798 v 0 c -0.565,0 -0.865,-0.01 -0.865,-0.01 M 643.93,198.26 c 0,12.531 8.675,22.688 19.375,22.688 v 0 c 10.7,0 19.374,-10.157 19.374,-22.688 v 0 c 0,-12.529 -8.674,-22.686 -19.374,-22.686 v 0 c -10.7,0 -19.375,10.157 -19.375,22.686"
               style="fill:url(#linearGradient88);stroke:none"
               id="path90" /></g></g></g></g><g
       id="g92"><g
         id="g94"><g
           id="g100"><g
             id="g102"><path
               d="M 255.064,114.631 V 1.807 h 69.912 c 0,0 9.994,-0.627 22.201,4.043 v 0 c 0.633,0.114 5.173,2.333 8.171,4.538 v 0 c 2.999,2.208 5.038,4.571 5.038,4.571 v 0 c 0,0 2.445,2.948 4.012,5.798 v 0 c 1.567,2.851 2.306,6 2.723,7.205 v 0 c 0.695,2.967 0.564,3.034 0.908,5.768 v 0 c 0.382,2.429 0,5.01 0,5.01 v 0 c 0,0 -0.362,3.199 -1.201,5.916 v 0 c -0.838,2.718 -2.928,6.355 -2.928,6.355 v 0 c 0,0 -2.48,3.624 -4.598,5.654 v 0 c -2.121,2.029 -6.473,5.125 -6.473,5.125 v 0 c 0,0 3.805,1.811 6.473,6.472 v 0 c 2.665,4.661 2.957,8.611 2.957,8.611 v 0 c 0,0 1.126,5.173 -0.119,10.895 v 0 c -1.243,5.727 -3.836,9.959 -3.836,9.959 v 0 c 0,0 -3.171,5.477 -7.965,8.64 v 0 c -9.849,7.841 -25.723,8.264 -25.723,8.264 v 0 z M 307.203,65.885 V 94.2 c 0,0 11.085,-0.1 11.285,-14.158 v 0 C 318.121,66.47 309.014,65.88 307.435,65.88 v 0 c -0.15,0 -0.232,0.005 -0.232,0.005 m 0.362,-44.174 v 28.313 c 0,0 11.085,-0.102 11.286,-14.157 v 0 C 318.482,22.295 309.378,21.705 307.798,21.705 v 0 c -0.151,0 -0.233,0.006 -0.233,0.006"
               style="fill:url(#linearGradient108);stroke:none"
               id="path110" /></g></g></g></g><g
       id="g112"><g
         id="g114"><g
           id="g120"><g
             id="g122"><path
               d="M 443.265,117.439 C 371.578,115.403 373.628,58.387 373.63,57.651 v 0 C 376.388,10.63 418.616,1.551 435.942,0 v 0 h 12.903 c 66.452,3.982 66.119,58.686 65.482,57.651 v 0 c -2.586,57.874 -62.274,59.798 -70.197,59.798 v 0 c -0.564,0 -0.865,-0.01 -0.865,-0.01 m -19.37,-59.307 c 0,12.529 8.672,22.687 19.375,22.687 v 0 c 10.695,0 19.371,-10.158 19.371,-22.687 v 0 c 0,-12.53 -8.676,-22.685 -19.371,-22.685 v 0 c -10.703,0 -19.375,10.155 -19.375,22.685"
               style="fill:url(#linearGradient128);stroke:none"
               id="path130" /></g></g></g></g><g
       id="g132"><g
         id="g134"><g
           id="g140"><g
             id="g142"><path
               d="M 523.758,114.631 V 1.807 h 97.138 v 46.039 h -42.405 v 66.785 z"
               style="fill:url(#linearGradient148);stroke:none"
               id="path150" /></g></g></g></g><g
       id="g152"><g
         id="g154"><g
           id="g160"><g
             id="g162"><path
               d="m 673.372,117.704 c -6.206,-0.628 -11.483,-1.934 -11.483,-1.934 v 0 c 0,0 -7.036,-1.805 -9.485,-3.133 v 0 c -4.311,-1.92 -6.65,-3.603 -6.65,-3.603 v 0 c 0,0 -3.571,-2.502 -5.858,-4.95 v 0 c -2.845,-3.005 -4.801,-6.942 -4.801,-6.942 v 0 c 0,0 -1.567,-2.82 -2.756,-7.409 v 0 c -0.57,-2.455 -0.65,-3.614 -0.88,-5.741 v 0 c -0.23,-2.126 -0.186,-5.935 -0.117,-6.383 v 0 c 0.159,-2.989 0.849,-5.567 0.849,-5.567 v 0 c 0,0 0.428,-1.94 2.111,-5.564 v 0 c 2.296,-3.974 3.416,-4.751 3.426,-4.92 v 0 c 2.44,-2.769 5.798,-4.892 5.798,-4.892 v 0 c 0,0 2.887,-1.791 5.888,-3.044 v 0 c 2.997,-1.253 7.232,-2.431 7.232,-2.431 v 0 c 0,0 3.94,-0.939 6.034,-1.378 v 0 c 2.095,-0.437 9.779,-1.523 9.779,-1.523 v 0 c 0,0 9.439,-1.142 10.283,-2.724 v 0 c 0.84,-1.581 -8.96,-4.754 -10.253,-5.067 v 0 c -2.614,-0.787 -9.185,-0.821 -9.185,-0.821 v 0 c 0,0 -9.169,0.331 -17.524,3.134 v 0 c -11,3.444 -11.486,5.994 -11.486,5.994 v 0 L 628.511,5.089 c 0,0 14.736,-2.826 16.434,-2.754 v 0 c 7.785,-1.254 16.019,-1.728 16.019,-1.728 v 0 c 0,0 10.262,-0.589 12.185,-0.557 v 0 c 0.475,-0.033 1.177,-0.048 2.006,-0.05 v 0 h 0.486 c 3.653,0.01 9.214,0.223 9.544,0.256 v 0 c 8.903,0.516 11.292,1.08 12.445,1.228 v 0 c 5.256,0.599 11.496,2.616 11.745,2.723 v 0 c 3.706,0.998 7.246,3.018 8.579,3.751 v 0 c 4.13,2.197 7.285,5.455 7.526,5.77 v 0 c 2.415,2.516 4.167,5.355 4.218,5.475 v 0 c 1.837,3.163 3.162,7.325 3.192,7.496 v 0 c 1.06,3.583 1.348,7.559 1.348,7.559 v 0 l 0.241,3.456 c 0,0 0,5.256 -0.211,5.476 v 0 c -0.233,2.03 -0.646,3.455 -0.646,3.455 v 0 c 0,0 -0.814,3.201 -1.464,4.248 v 0 c -0.795,1.845 -2.634,4.355 -2.811,4.54 v 0 c -0.969,1.344 -2.763,3.033 -3.339,3.428 v 0 c -0.975,1.02 -4.235,3.118 -4.539,3.28 v 0 c -0.306,0.158 -4.994,2.645 -5.245,2.545 v 0 c -0.954,0.524 -5.914,2.082 -6.295,2.169 v 0 c -2.766,0.752 -7.176,1.611 -7.176,1.611 v 0 l -8.408,1.374 c 0,0 -2.057,0.315 -7.613,1.085 v 0 c -8.388,1.166 -7.148,2.58 -7.148,2.58 v 0 c 0,0 0.779,2.457 9.549,5.36 v 0 c 2.45,0.807 5.876,0.798 7.609,0.791 v 0 c 0.613,-0.002 1.015,-0.004 1.087,0.029 v 0 c 10.659,-0.861 9.032,-1.039 11.221,-1.611 v 0 c 2.187,-0.571 16.926,-5.33 16.926,-5.33 v 0 l 5.592,38.341 c 0,0 -23.49,4.876 -25.13,5.124 v 0 c -0.566,0.248 -12.641,1.67 -13.387,1.699 v 0 c -1.571,0.063 -8.17,0.322 -8.17,0.322 v 0 c 0,0 -10.957,-0.331 -11.509,-0.526"
               style="fill:url(#linearGradient168);stroke:none"
               id="path170" /></g></g></g></g><g
       id="g172"><g
         id="g174"><g
           id="g180"><g
             id="g182"><path
               d="M 765.398,114.631 735.571,1.807 h 40.76 l 4.685,17.107 39.952,0.1 4.736,-17.207 H 869.89 L 838.198,114.631 Z M 801.116,84.914 814.87,45.113 h -27.711 z"
               style="fill:url(#linearGradient188);stroke:none"
               id="path190" /></g></g></g></g><g
       id="g192"><g
         id="g194"><g
           id="g200"><g
             id="g202"><path
               d="m 114.451,283.205 c -0.37,-0.002 -0.74,-0.006 -1.105,-0.013 v 0 C 37.4,280.913 1.555,228.882 0.061,174.601 v 0 C -1.433,120.321 26.174,58.314 113.846,55.371 v 0 C 116.532,55.092 240.81,42.039 240.81,42.039 v 0 l -69.094,29.283 c 0,0 52.757,30.11 56.124,94.48 v 0 c -0.123,82.878 -71.243,117.237 -112.792,117.403 v 0 z"
               style="fill:url(#linearGradient208);stroke:none"
               id="path210" /></g></g></g></g><g
       id="g212"><g
         id="g214"><g
           id="g220"><g
             id="g222"><path
               d="m 43.264,219.591 c 0,-15.958 12.975,-28.895 28.978,-28.895 v 0 c 16.007,0 28.981,12.937 28.981,28.895 v 0 c 0,15.96 -12.974,28.897 -28.981,28.897 v 0 c -16.003,0 -28.978,-12.937 -28.978,-28.897"
               style="fill:url(#linearGradient232);stroke:none"
               id="path234" /></g></g></g></g><g
       id="g236"><g
         id="g238"><g
           id="g244"><g
             id="g246"><path
               d="m 136.216,121.349 c 0,-15.958 12.974,-28.896 28.978,-28.896 v 0 c 16.007,0 28.98,12.938 28.98,28.896 v 0 c 0,15.96 -12.973,28.898 -28.98,28.898 v 0 c -16.004,0 -28.978,-12.938 -28.978,-28.898"
               style="fill:url(#linearGradient256);stroke:none"
               id="path258" /></g></g></g></g><g
       id="g260"><g
         id="g262"><g
           id="g268"><g
             id="g270"><path
               d="m 154.678,237.231 c 0,0 -31.501,-33.062 -32.066,-33.655 v 0 c 30.515,2.492 27.004,-23.896 27.004,-23.896 v 0 l 28.014,40.117 c 0,0 0.93,18.032 -16.917,18.029 v 0 c -1.811,0 -3.818,-0.186 -6.035,-0.595"
               style="fill:url(#linearGradient280);stroke:none"
               id="path282" /></g></g></g></g><g
       id="g284"><g
         id="g286"><g
           id="g292"><g
             id="g294"><path
               d="M 117.166,198.55 C 100.406,181.207 95.701,176.337 95.701,176.337 v 0 c 0,0 36.789,6.864 30.849,-29.48 v 0 c -0.203,-0.541 18.294,25.844 18.294,25.844 v 0 c 0,0 4.535,26.54 -20.205,26.542 v 0 c -2.244,0 -4.724,-0.217 -7.473,-0.693"
               style="fill:url(#linearGradient304);stroke:none"
               id="path306" /></g></g></g></g><g
       id="g308"><g
         id="g310"><g
           id="g316"><g
             id="g318"><path
               d="m 158.506,183.42 36.748,31.683 -12.245,1.338 z"
               style="fill:url(#linearGradient328);stroke:none"
               id="path330" /></g></g></g></g><g
       id="g332"><g
         id="g334"><g
           id="g340"><g
             id="g342"><path
               d="M 91.786,171.066 C 88.732,169.266 59.61,140.324 59.121,138.98 v 0 c -13.395,-17.7 -2.743,-33.44 0.472,-35.788 v 0 c 6.462,-7.116 23.073,-11.034 34.142,0.038 v 0 c 1.982,1.607 29.463,39.296 29.463,39.296 v 0 c 0,0 3.883,29.927 -21.125,29.93 v 0 c -2.997,0.001 -6.404,-0.429 -10.287,-1.39 m -37.087,-50.51 c 0,12.251 9.913,22.183 22.141,22.183 v 0 c 12.23,0 22.141,-9.932 22.141,-22.183 v 0 c 0,-12.251 -9.911,-22.182 -22.141,-22.182 v 0 c -12.228,0 -22.141,9.931 -22.141,22.182"
               style="fill:url(#linearGradient352);stroke:none"
               id="path354" /></g></g></g></g><g
       id="g356"><g
         id="g358"><g
           id="g364"><g
             id="g366"><path
               d="m 62.126,116.586 c 0,0 3.371,-13.703 17.439,-12.864 v 0 c 13.031,0.711 14.326,14.287 13.939,16.29 v 0 c 0.128,2.263 -0.692,12.837 -9.725,16.677 v 0 c -0.002,0 -0.004,0 -0.006,0 v 0 C 82.546,136.688 62.126,116.586 62.126,116.586"
               style="fill:url(#linearGradient376);stroke:none"
               id="path378" /></g></g></g></g></g></svg>
