<svg width="64" height="74" viewBox="0 0 64 74" fill="none" xmlns="http://www.w3.org/2000/svg">
<path d="M54.4143 13.8715C48.4286 7.87153 40.4571 4.57153 31.9857 4.57153C14.5 4.57153 0.271429 18.8001 0.271429 36.2858C0.271429 41.8715 1.72857 47.3287 4.5 52.143L0 68.5715L16.8143 64.1573C21.4429 66.6858 26.6571 68.0144 31.9714 68.0144H31.9857C49.4571 68.0144 64 53.7858 64 36.3001C64 27.8287 60.4 19.8715 54.4143 13.8715V13.8715ZM31.9857 62.6715C27.2429 62.6715 22.6 61.4001 18.5571 59.0001L17.6 58.4287L7.62857 61.043L10.2857 51.3144L9.65714 50.3144C7.01429 46.1144 5.62857 41.2715 5.62857 36.2858C5.62857 21.7572 17.4571 9.92868 32 9.92868C39.0429 9.92868 45.6571 12.6715 50.6286 17.6572C55.6 22.643 58.6571 29.2572 58.6429 36.3001C58.6429 50.843 46.5143 62.6715 31.9857 62.6715V62.6715ZM46.4429 42.9287C45.6571 42.5287 41.7571 40.6144 41.0286 40.3572C40.3 40.0858 39.7714 39.9572 39.2429 40.7572C38.7143 41.5572 37.2 43.3287 36.7286 43.8715C36.2714 44.4001 35.8 44.4715 35.0143 44.0715C30.3571 41.743 27.3 39.9144 24.2286 34.643C23.4143 33.243 25.0429 33.343 26.5571 30.3144C26.8143 29.7858 26.6857 29.3287 26.4857 28.9287C26.2857 28.5287 24.7 24.6287 24.0429 23.043C23.4 21.5001 22.7429 21.7144 22.2571 21.6858C21.8 21.6572 21.2714 21.6572 20.7429 21.6572C20.2143 21.6572 19.3571 21.8572 18.6286 22.643C17.9 23.443 15.8571 25.3572 15.8571 29.2572C15.8571 33.1572 18.7 36.9287 19.0857 37.4573C19.4857 37.9858 24.6714 45.9858 32.6286 49.4287C37.6571 51.6001 39.6286 51.7858 42.1429 51.4144C43.6714 51.1858 46.8286 49.5001 47.4857 47.643C48.1429 45.7858 48.1429 44.2001 47.9429 43.8715C47.7571 43.5144 47.2286 43.3144 46.4429 42.9287Z" fill="#22D365"/>
</svg>
